Coordinates
version=1
nRows=63
nColumns=11
inDegrees=no

Units are S.I. units (second, meters, Newtons, ...)
If the header above contains a line with 'inDegrees', this indicates whether rotational values are in degrees (yes) or radians (no).

endheader
time	pelvis_tilt	pelvis_tx	pelvis_ty	hip_flexion_r	knee_angle_r	ankle_angle_r	hip_flexion_l	knee_angle_l	ankle_angle_l	lumbar_extension
105.01	0.0642844	0.322266	0.921665	0.324268	-0.333764	-0.00310425	-0.237342	-0.366395	0.319227	0
105.02	0.0737448	0.324457	0.922791	0.308665	-0.344778	0.0133526	-0.245098	-0.390024	0.306043	0
105.03	0.0740474	0.324567	0.923614	0.305028	-0.356917	0.0256769	-0.233711	-0.427885	0.290333	0
105.04	0.0774318	0.325466	0.924903	0.293939	-0.363171	0.0370732	-0.225989	-0.464923	0.270062	0
105.05	0.0802514	0.326232	0.926111	0.280042	-0.363501	0.052683	-0.21451	-0.505809	0.244205	0
105.06	0.0805888	0.326399	0.927091	0.269132	-0.363395	0.0619014	-0.194975	-0.55407	0.210917	0
105.07	0.0820081	0.326823	0.928335	0.255462	-0.360572	0.0716217	-0.172704	-0.607447	0.170118	0
105.08	0.0840483	0.32682	0.929479	0.241647	-0.358208	0.0798596	-0.147813	-0.66491	0.133572	0
105.09	0.0822845	0.326221	0.930338	0.234059	-0.356949	0.0892857	-0.114538	-0.725728	0.0963734	0
105.1	0.0818129	0.32551	0.93125	0.224913	-0.355712	0.101163	-0.0815874	-0.786165	0.0591639	0
105.11	0.0816789	0.324843	0.931961	0.212323	-0.348021	0.114849	-0.0487171	-0.845303	0.0195274	0
105.12	0.0825529	0.324654	0.932599	0.200578	-0.343932	0.121439	-0.0163931	-0.902075	-0.0249854	0
105.13	0.0799265	0.323245	0.933185	0.193522	-0.342181	0.127458	0.0196631	-0.955632	-0.0738432	0
105.14	0.0784505	0.322665	0.933653	0.187213	-0.343298	0.136393	0.0525239	-1.0016	-0.124512	0
105.15	0.0793679	0.321752	0.934393	0.177033	-0.344413	0.146066	0.0792096	-1.04127	-0.173694	0
105.16	0.0789774	0.320976	0.934927	0.168731	-0.344672	0.154704	0.107699	-1.07986	-0.206964	0
105.17	0.0789779	0.320341	0.935508	0.159593	-0.342116	0.161149	0.135503	-1.11704	-0.2111	0
105.18	0.0782534	0.318532	0.93626	0.149295	-0.337028	0.167692	0.162835	-1.15262	-0.187751	0
105.19	0.078083	0.317338	0.936955	0.137791	-0.331085	0.176014	0.188324	-1.18306	-0.15767	0
105.2	0.0639963	0.313932	0.936741	0.144677	-0.323036	0.177304	0.235009	-1.21345	-0.125634	0
105.21	0.0979223	0.31835	0.939445	0.0933084	-0.328355	0.180971	0.209441	-1.22852	-0.096915	0
105.22	0.0747324	0.313137	0.939219	0.105888	-0.308489	0.184026	0.262004	-1.24037	-0.070799	0
105.23	0.0732994	0.311376	0.939898	0.0962635	-0.30162	0.18823	0.286721	-1.25045	-0.0504251	0
105.24	0.0717239	0.309311	0.940578	0.0880683	-0.296503	0.189352	0.311145	-1.25575	-0.0364303	0
105.25	0.0689905	0.30702	0.940963	0.0815573	-0.291725	0.190373	0.3363	-1.25638	-0.0319766	0
105.26	0.0663251	0.304915	0.941372	0.0744916	-0.28712	0.195305	0.358789	-1.25066	-0.0291002	0
105.27	0.0526899	0.301127	0.940817	0.0804637	-0.277617	0.196982	0.397007	-1.2447	-0.0271491	0
105.28	0.052421	0.299635	0.941374	0.0693555	-0.270187	0.200229	0.411567	-1.22749	-0.0247626	0
105.29	0.065744	0.300086	0.942942	0.0416598	-0.266845	0.206108	0.402894	-1.19992	-0.0234263	0
105.3	0.0637388	0.297986	0.942891	0.0350707	-0.263812	0.208919	0.419439	-1.17685	-0.0218987	0
105.31	0.0605554	0.295933	0.942863	0.0289142	-0.259305	0.212374	0.43475	-1.14924	-0.0190441	0
105.32	0.0576056	0.294036	0.942801	0.0219658	-0.253814	0.218336	0.447472	-1.1171	-0.0117666	0
105.33	0.0558297	0.292232	0.942689	0.0133459	-0.247738	0.223566	0.456091	-1.07978	-0.00164867	0
105.34	0.0541706	0.29044	0.942554	0.0059674	-0.244612	0.228427	0.461765	-1.03657	0.0103205	0
105.35	0.0522023	0.288416	0.942216	0.000272992	-0.243813	0.233263	0.467709	-0.990928	0.0162987	0
105.36	0.0484971	0.286285	0.941587	-0.00229396	-0.245678	0.239013	0.473986	-0.94184	0.0198367	0
105.37	0.0316069	0.282887	0.939945	0.0120459	-0.2444	0.240601	0.495439	-0.889299	0.0283076	0
105.38	0.0289115	0.280815	0.939319	0.00824737	-0.246569	0.248341	0.49398	-0.831356	0.0342264	0
105.39	0.0255828	0.278906	0.938554	0.00481399	-0.247588	0.255818	0.493781	-0.772826	0.0314326	0
105.4	0.0235696	0.277537	0.937847	-0.000359604	-0.249849	0.261976	0.490017	-0.712083	0.0283077	0
105.41	0.0216506	0.276465	0.937177	-0.0074943	-0.248504	0.268034	0.484662	-0.65008	0.0229084	0
105.42	0.0197089	0.275078	0.936181	-0.0144104	-0.246736	0.27677	0.477944	-0.584999	0.0105732	0
105.43	0.0185481	0.274049	0.935209	-0.020549	-0.248997	0.283917	0.468479	-0.519445	-0.00852036	0
105.44	0.0181619	0.273455	0.934352	-0.0288093	-0.250332	0.288848	0.456047	-0.452526	-0.0236271	0
105.45	0.0180418	0.273063	0.933409	-0.0390013	-0.248816	0.296793	0.440924	-0.383696	-0.0328231	0
105.46	0.0347541	0.276127	0.93366	-0.0717505	-0.24602	0.307863	0.407248	-0.322616	-0.0374039	0
105.47	0.0194004	0.272965	0.931451	-0.06431	-0.239655	0.313283	0.41643	-0.26767	-0.0428198	0
105.48	0.0181565	0.271833	0.929941	-0.0702872	-0.24118	0.321476	0.414006	-0.227171	-0.0441257	0
105.49	0.0174382	0.27123	0.928606	-0.0789773	-0.240011	0.327236	0.409177	-0.189722	-0.0410276	0
105.5	0.0173668	0.271378	0.927596	-0.0910814	-0.235617	0.33181	0.402058	-0.155707	-0.0358453	0
105.51	0.018471	0.271917	0.926687	-0.104332	-0.232325	0.3361	0.396929	-0.133171	-0.0254559	0
105.52	0.0205086	0.272354	0.925784	-0.117412	-0.230863	0.338866	0.392534	-0.118644	-0.0119897	0
105.53	0.0238305	0.272723	0.925199	-0.131083	-0.230807	0.341468	0.387509	-0.110091	0.0013778	0
105.54	0.0262536	0.273339	0.924569	-0.144633	-0.229699	0.347315	0.383774	-0.107672	0.0131006	0
105.55	0.0275528	0.274076	0.923752	-0.157292	-0.22893	0.351728	0.381246	-0.109717	0.0227428	0
105.56	0.0278563	0.274309	0.922879	-0.167373	-0.230362	0.354031	0.380796	-0.116464	0.0277635	0
105.57	0.0280901	0.274388	0.92202	-0.175643	-0.233632	0.354536	0.381722	-0.128591	0.0296714	0
105.58	0.0436871	0.276935	0.922251	-0.204876	-0.236052	0.358893	0.363232	-0.144965	0.0328572	0
105.59	0.0320712	0.275904	0.920868	-0.201132	-0.232884	0.354549	0.380172	-0.164748	0.0335422	0
105.6	0.0346243	0.276936	0.920393	-0.212914	-0.236229	0.351341	0.376527	-0.182918	0.0334741	0
105.61	0.0361849	0.277884	0.920065	-0.223197	-0.239978	0.347221	0.372563	-0.19626	0.026125	0
105.62	0.0375991	0.279007	0.919898	-0.23318	-0.243935	0.343131	0.368778	-0.207709	0.0170692	0
105.63	0.0396278	0.280318	0.919584	-0.24411	-0.248008	0.336496	0.36415	-0.217782	0.00636266	0
